<?xml version="1.0" encoding="UTF-8" standalone="no"?>
<svg
   xmlns:dc="http://purl.org/dc/elements/1.1/"
   xmlns:cc="http://creativecommons.org/ns#"
   xmlns:rdf="http://www.w3.org/1999/02/22-rdf-syntax-ns#"
   xmlns:svg="http://www.w3.org/2000/svg"
   xmlns="http://www.w3.org/2000/svg"
   viewBox="0 0 816 1056"
   height="1056"
   width="816"
   xml:space="preserve"
   version="1.1"
   id="svg2"><metadata
     id="metadata8"><rdf:RDF><cc:Work
         rdf:about=""><dc:format>image/svg+xml</dc:format><dc:type
           rdf:resource="http://purl.org/dc/dcmitype/StillImage" /></cc:Work></rdf:RDF></metadata><defs
     id="defs6"><clipPath
       id="clipPath16"
       clipPathUnits="userSpaceOnUse"><path
         id="path18"
         d="M 0,792 612,792 612,0 0,0 0,792 Z" /></clipPath><clipPath
       id="clipPath28"
       clipPathUnits="userSpaceOnUse"><path
         id="path30"
         d="m 208.215,482.028 c -10.111,0 -15.029,-4.919 -15.029,-15.302 l 0,0 0,-80.611 c 31.151,-11.204 68.313,-16.669 110.942,-16.669 l 0,0 10.11,0 0,4.373 -22.133,0 0,31.15 22.133,0 0,11.204 c 0,12.571 1.366,21.861 4.098,28.145 l 0,0 c 2.46,6.012 7.378,10.931 14.483,15.029 l 0,0 c 7.377,4.099 16.395,6.012 27.326,6.012 l 0,0 c 11.476,0 22.406,-1.913 33.337,-5.191 l 0,0 -5.465,-27.599 c -6.285,1.366 -12.298,2.185 -18.034,2.185 l 0,0 c -6.012,0 -10.112,-1.366 -12.57,-3.825 l 0,0 c -2.459,-2.732 -3.554,-7.925 -3.554,-15.575 l 0,0 0,-10.385 29.239,0 0,-27.871 c 9.29,2.186 17.762,4.371 26.233,7.104 l 0,0 0,82.524 c 0,10.383 -4.92,15.302 -15.028,15.302 l 0,0 -186.088,0 z" /></clipPath><radialGradient
       id="radialGradient36"
       spreadMethod="pad"
       gradientTransform="matrix(128.72795,0,0,-128.72795,301.2583,313.7832)"
       gradientUnits="userSpaceOnUse"
       r="1"
       cy="0"
       cx="0"
       fy="0"
       fx="0"><stop
         id="stop38"
         offset="0"
         style="stop-opacity:1;stop-color:#d7dae6" /><stop
         id="stop40"
         offset="1"
         style="stop-opacity:1;stop-color:#293e9b" /></radialGradient><clipPath
       id="clipPath48"
       clipPathUnits="userSpaceOnUse"><path
         id="path50"
         d="M 0,792 612,792 612,0 0,0 0,792 Z" /></clipPath><clipPath
       id="clipPath60"
       clipPathUnits="userSpaceOnUse"><path
         id="path62"
         d="m 193.186,279.819 c 0.273,-9.29 5.465,-13.937 15.029,-13.937 l 0,0 186.088,0 c 9.837,0 14.754,4.647 15.028,13.937 l 0,0 0,104.383 c -8.471,-2.733 -16.943,-4.918 -26.233,-7.104 l 0,0 0,-3.279 -18.035,0 c -3.826,-0.547 -7.65,-1.367 -11.204,-1.64 l 0,0 0,-48.639 33.612,0 c 10.109,0 15.302,-4.919 15.302,-15.029 l 0,0 0,-21.041 c 0,-9.838 -5.193,-14.756 -15.302,-14.756 l 0,0 -33.612,0 0,-1.913 -39.621,0 0,1.913 -100.832,0 c -9.837,0 -15.029,4.918 -15.029,14.756 l 0,0 0,21.041 c 0,10.11 5.192,15.029 15.029,15.029 l 0,0 100.832,0 0,45.906 -10.11,0 c -42.629,0 -79.791,5.465 -110.942,16.669 l 0,0 0,-106.296 z" /></clipPath><radialGradient
       id="radialGradient68"
       spreadMethod="pad"
       gradientTransform="matrix(128.72862,0,0,-128.72862,301.2583,313.78418)"
       gradientUnits="userSpaceOnUse"
       r="1"
       cy="0"
       cx="0"
       fy="0"
       fx="0"><stop
         id="stop70"
         offset="0"
         style="stop-opacity:1;stop-color:#608acf" /><stop
         id="stop72"
         offset="1"
         style="stop-opacity:1;stop-color:#2a3286" /></radialGradient><clipPath
       id="clipPath80"
       clipPathUnits="userSpaceOnUse"><path
         id="path82"
         d="M 0,792 612,792 612,0 0,0 0,792 Z" /></clipPath><clipPath
       id="clipPath92"
       clipPathUnits="userSpaceOnUse"><path
         id="path94"
         d="m 353.859,373.819 0,-1.64 c 3.554,0.273 7.378,1.093 11.204,1.64 l 0,0 -11.204,0 z" /></clipPath><radialGradient
       id="radialGradient100"
       spreadMethod="pad"
       gradientTransform="matrix(128.70586,0,0,-128.70586,301.27051,313.79492)"
       gradientUnits="userSpaceOnUse"
       r="1"
       cy="0"
       cx="0"
       fy="0"
       fx="0"><stop
         id="stop102"
         offset="0"
         style="stop-opacity:1;stop-color:#b5bedb" /><stop
         id="stop104"
         offset="1"
         style="stop-opacity:1;stop-color:#6f7590" /><stop
         id="stop106"
         offset="1"
         style="stop-opacity:1;stop-color:#6f7590" /></radialGradient><clipPath
       id="clipPath114"
       clipPathUnits="userSpaceOnUse"><path
         id="path116"
         d="M 0,792 612,792 612,0 0,0 0,792 Z" /></clipPath></defs><g
     transform="matrix(1.3333333,0,0,-1.3333333,0,1056)"
     id="g10"><g
       id="g12"><g
         clip-path="url(#clipPath16)"
         id="g14"><g
           transform="translate(394.3022,482.0283)"
           id="g20"><path
             id="path22"
             style="fill:#ffffff;fill-opacity:1;fill-rule:nonzero;stroke:none"
             d="m 0,0 c 10.109,0 15.029,-4.919 15.029,-15.303 l 0,-82.523 0,-104.383 C 14.755,-211.5 9.837,-216.146 0,-216.146 l -186.087,0 c -9.565,0 -14.756,4.646 -15.03,13.937 l 0,106.296 0,80.61 c 0,10.384 4.918,15.303 15.03,15.303 L 0,0 Z M 24.319,-15.303 C 24.319,1.093 16.122,9.291 0,9.291 l -186.087,0 c -16.396,0 -24.594,-8.198 -24.594,-24.594 l 0,-186.906 0,-0.274 0,-0.273 c 0.547,-15.303 8.745,-22.953 24.594,-22.953 l 186.087,0 c 16.122,0 24.046,7.65 24.319,22.953 l 0,0.273 0,0.274 0,186.906 z" /></g></g></g><g
       id="g24"><g
         clip-path="url(#clipPath28)"
         id="g26"><g
           id="g32"><g
             id="g34"><path
               id="path42"
               style="fill:url(#radialGradient36);stroke:none"
               d="m 208.215,482.028 c -10.111,0 -15.029,-4.919 -15.029,-15.302 l 0,0 0,-80.611 c 31.151,-11.204 68.313,-16.669 110.942,-16.669 l 0,0 10.11,0 0,4.373 -22.133,0 0,31.15 22.133,0 0,11.204 c 0,12.571 1.366,21.861 4.098,28.145 l 0,0 c 2.46,6.012 7.378,10.931 14.483,15.029 l 0,0 c 7.377,4.099 16.395,6.012 27.326,6.012 l 0,0 c 11.476,0 22.406,-1.913 33.337,-5.191 l 0,0 -5.465,-27.599 c -6.285,1.366 -12.298,2.185 -18.034,2.185 l 0,0 c -6.012,0 -10.112,-1.366 -12.57,-3.825 l 0,0 c -2.459,-2.732 -3.554,-7.925 -3.554,-15.575 l 0,0 0,-10.385 29.239,0 0,-27.871 c 9.29,2.186 17.762,4.371 26.233,7.104 l 0,0 0,82.524 c 0,10.383 -4.92,15.302 -15.028,15.302 l 0,0 -186.088,0 z" /></g></g></g></g><g
       id="g44"><g
         clip-path="url(#clipPath48)"
         id="g46"><g
           transform="translate(393.4814,460.168)"
           id="g52"><path
             id="path54"
             style="fill:#ffffff;fill-opacity:1;fill-rule:nonzero;stroke:none"
             d="m 0,0 c -10.93,3.278 -21.86,5.191 -33.336,5.191 -10.931,0 -19.949,-1.913 -27.326,-6.011 -7.105,-4.099 -12.023,-9.017 -14.484,-15.03 -2.732,-6.284 -4.098,-15.574 -4.098,-28.145 l 0,-11.203 -22.133,0 0,-31.151 22.133,0 0,-4.373 0,-45.906 0,-50.826 0,-1.913 39.622,0 0,1.913 0,50.826 0,48.639 0,1.64 11.204,0 18.035,0 0,3.28 0,27.871 -29.239,0 0,10.385 c 0,7.65 1.094,12.841 3.553,15.574 2.459,2.459 6.558,3.825 12.57,3.825 5.737,0 11.749,-0.819 18.034,-2.185 L 0,0 Z" /></g></g></g><g
       id="g56"><g
         clip-path="url(#clipPath60)"
         id="g58"><g
           id="g64"><g
             id="g66"><path
               id="path74"
               style="fill:url(#radialGradient68);stroke:none"
               d="m 193.186,279.819 c 0.273,-9.29 5.465,-13.937 15.029,-13.937 l 0,0 186.088,0 c 9.837,0 14.754,4.647 15.028,13.937 l 0,0 0,104.383 c -8.471,-2.733 -16.943,-4.918 -26.233,-7.104 l 0,0 0,-3.279 -18.035,0 c -3.826,-0.547 -7.65,-1.367 -11.204,-1.64 l 0,0 0,-48.639 33.612,0 c 10.109,0 15.302,-4.919 15.302,-15.029 l 0,0 0,-21.041 c 0,-9.838 -5.193,-14.756 -15.302,-14.756 l 0,0 -33.612,0 0,-1.913 -39.621,0 0,1.913 -100.832,0 c -9.837,0 -15.029,4.918 -15.029,14.756 l 0,0 0,21.041 c 0,10.11 5.192,15.029 15.029,15.029 l 0,0 100.832,0 0,45.906 -10.11,0 c -42.629,0 -79.791,5.465 -110.942,16.669 l 0,0 0,-106.296 z" /></g></g></g></g><g
       id="g76"><g
         clip-path="url(#clipPath80)"
         id="g78"><g
           transform="translate(402.7734,308.5107)"
           id="g84"><path
             id="path86"
             style="fill:#b5b8e3;fill-opacity:1;fill-rule:nonzero;stroke:none"
             d="m 0,0 c 0,10.11 -5.193,15.029 -15.303,15.029 l -33.611,0 0,-50.825 33.611,0 C -5.193,-35.796 0,-30.878 0,-21.041 L 0,0 Z" /></g></g></g><g
       id="g88"><g
         clip-path="url(#clipPath92)"
         id="g90"><g
           id="g96"><g
             id="g98"><path
               id="path108"
               style="fill:url(#radialGradient100);stroke:none"
               d="m 353.859,373.819 0,-1.64 c 3.554,0.273 7.378,1.093 11.204,1.64 l 0,0 -11.204,0 z" /></g></g></g></g><g
       id="g110"><g
         clip-path="url(#clipPath114)"
         id="g112"><g
           transform="translate(314.2373,272.7144)"
           id="g118"><path
             id="path120"
             style="fill:#b5b8e3;fill-opacity:1;fill-rule:nonzero;stroke:none"
             d="m 0,0 0,50.826 -100.831,0 c -9.837,0 -15.029,-4.92 -15.029,-15.03 l 0,-21.041 C -115.86,4.918 -110.668,0 -100.831,0 L 0,0 Z" /></g></g></g></g></svg>