<?xml version="1.0" encoding="UTF-8" standalone="no"?>
<svg
   xmlns:dc="http://purl.org/dc/elements/1.1/"
   xmlns:cc="http://creativecommons.org/ns#"
   xmlns:rdf="http://www.w3.org/1999/02/22-rdf-syntax-ns#"
   xmlns:svg="http://www.w3.org/2000/svg"
   xmlns="http://www.w3.org/2000/svg"
   viewBox="0 0 816 1056"
   height="1056"
   width="816"
   xml:space="preserve"
   version="1.1"
   id="svg2"><metadata
     id="metadata8"><rdf:RDF><cc:Work
         rdf:about=""><dc:format>image/svg+xml</dc:format><dc:type
           rdf:resource="http://purl.org/dc/dcmitype/StillImage" /></cc:Work></rdf:RDF></metadata><defs
     id="defs6"><clipPath
       id="clipPath16"
       clipPathUnits="userSpaceOnUse"><path
         id="path18"
         d="M 0,792 612,792 612,0 0,0 0,792 Z" /></clipPath><clipPath
       id="clipPath28"
       clipPathUnits="userSpaceOnUse"><path
         id="path30"
         d="m 383.549,401.734 -3.151,-7.759 -15.032,-36.608 15.517,-1.941 3.394,-0.484 17.697,-2.183 9.457,39.034 20.123,2.182 0.726,-5.576 -0.726,0 -1.456,-39.519 41.945,-8.001 -22.063,144.013 -30.791,3.879 -35.64,-87.037 z m -13.334,-41.702 51.156,125.103 25.456,-3.152 21.094,-136.982 -34.428,6.546 1.212,35.155 0.243,0 c 0.486,0.727 0.486,1.454 0.486,2.183 l 0,0 -0.486,5.333 c -0.243,0.728 -0.243,1.211 -0.485,1.697 l 0,0 c -0.485,0.485 -0.97,0.97 -1.454,0.97 l 0,0 c -0.729,0.485 -0.97,0.727 -1.698,0.485 l 0,0 -20.123,-2.183 c -0.728,0 -1.455,-0.241 -1.94,-0.969 l 0,0 c -0.484,-0.243 -0.969,-0.97 -1.212,-1.697 l 0,0 -8.485,-36.125 -29.336,3.636 z" /></clipPath><linearGradient
       id="linearGradient36"
       spreadMethod="pad"
       gradientTransform="matrix(13.505647,105.66183,146.57599,-18.669571,420.09033,359.96484)"
       gradientUnits="userSpaceOnUse"
       y2="0"
       x2="1"
       y1="0"
       x1="0"><stop
         id="stop38"
         offset="0"
         style="stop-opacity:1;stop-color:#fff200" /><stop
         id="stop40"
         offset="1"
         style="stop-opacity:1;stop-color:#f47216" /><stop
         id="stop42"
         offset="1"
         style="stop-opacity:1;stop-color:#f47216" /></linearGradient><clipPath
       id="clipPath50"
       clipPathUnits="userSpaceOnUse"><path
         id="path52"
         d="m 370.215,360.032 29.336,-3.636 8.485,36.125 c 0.243,0.727 0.728,1.454 1.212,1.697 l 0,0 c 0.485,0.728 1.212,0.969 1.94,0.969 l 0,0 20.123,2.183 c 0.728,0.242 0.969,0 1.698,-0.485 l 0,0 c 0.484,0 0.969,-0.485 1.454,-0.97 l 0,0 c 0.242,-0.486 0.242,-0.969 0.485,-1.697 l 0,0 0.486,-5.333 c 0,-0.729 0,-1.456 -0.486,-2.183 l 0,0 -0.243,0 -1.212,-35.155 34.428,-6.546 -21.094,136.982 -25.456,3.152 -51.156,-125.103 z m 45.095,49.945 c -0.728,0.242 -1.213,0.727 -1.455,1.212 l 0,0 c -0.242,0.728 -0.728,1.212 -0.728,1.94 l 0,0 c 0,0.242 0,0.484 0.243,0.727 l 0,0 11.153,43.397 c 0,0.728 0.484,1.212 0.727,1.698 l 0,0 c 0.728,0.485 1.212,0.728 1.939,0.97 l 0,0 c 0.486,0 1.214,0 1.698,-0.485 l 0,0 5.576,-1.94 c 0.242,-0.485 0.971,-0.726 1.213,-1.212 l 0,0 c 0.241,-0.727 0.484,-1.212 0.484,-1.94 l 0,0 0.486,-38.791 c 0,-0.97 -0.486,-1.697 -0.729,-2.182 l 0,0 c -0.727,-0.727 -1.212,-1.212 -2.182,-1.212 l 0,0 -16.485,-2.425 c -0.728,0 -1.455,0 -1.94,0.243" /></clipPath><linearGradient
       id="linearGradient58"
       spreadMethod="pad"
       gradientTransform="matrix(-7.5472369,-114.00301,-139.82251,9.1361294,426.53906,465.37354)"
       gradientUnits="userSpaceOnUse"
       y2="0"
       x2="1"
       y1="0"
       x1="0"><stop
         id="stop60"
         offset="0"
         style="stop-opacity:1;stop-color:#fff200" /><stop
         id="stop62"
         offset="0.43922"
         style="stop-opacity:1;stop-color:#fff200" /><stop
         id="stop64"
         offset="1"
         style="stop-opacity:1;stop-color:#f47216" /><stop
         id="stop66"
         offset="1"
         style="stop-opacity:1;stop-color:#f47216" /></linearGradient><clipPath
       id="clipPath74"
       clipPathUnits="userSpaceOnUse"><path
         id="path76"
         d="m 425.25,458.951 c -0.243,-0.486 -0.727,-0.97 -0.727,-1.698 l 0,0 -11.153,-43.397 c -0.243,-0.243 -0.243,-0.485 -0.243,-0.727 l 0,0 c 0,-0.728 0.486,-1.212 0.728,-1.94 l 0,0 c 0.242,-0.485 0.727,-0.97 1.455,-1.212 l 0,0 c 0.485,-0.243 1.212,-0.243 1.94,-0.243 l 0,0 16.485,2.425 c 0.97,0 1.455,0.485 2.182,1.212 l 0,0 c 0.243,0.485 0.729,1.212 0.729,2.182 l 0,0 -0.486,38.791 c 0,0.728 -0.243,1.213 -0.484,1.94 l 0,0 c -0.242,0.486 -0.971,0.727 -1.213,1.212 l 0,0 -5.576,1.94 c -0.484,0.485 -1.212,0.485 -1.698,0.485 l 0,0 c -0.727,-0.242 -1.211,-0.485 -1.939,-0.97 m 2.425,-2.424 5.334,-2.183 0.243,-38.791 -16.73,-2.424 11.153,43.398 z" /></clipPath><linearGradient
       id="linearGradient82"
       spreadMethod="pad"
       gradientTransform="matrix(13.505656,105.6619,146.5761,-18.669584,417.97168,360.23486)"
       gradientUnits="userSpaceOnUse"
       y2="0"
       x2="1"
       y1="0"
       x1="0"><stop
         id="stop84"
         offset="0"
         style="stop-opacity:1;stop-color:#fff200" /><stop
         id="stop86"
         offset="1"
         style="stop-opacity:1;stop-color:#f47216" /><stop
         id="stop88"
         offset="1"
         style="stop-opacity:1;stop-color:#f47216" /></linearGradient><clipPath
       id="clipPath96"
       clipPathUnits="userSpaceOnUse"><path
         id="path98"
         d="M 0,792 612,792 612,0 0,0 0,792 Z" /></clipPath><linearGradient
       id="linearGradient116"
       spreadMethod="pad"
       gradientTransform="matrix(9.136919,-152.14957,-141.02635,-8.7396612,430.86914,405.84766)"
       gradientUnits="userSpaceOnUse"
       y2="0"
       x2="1"
       y1="0"
       x1="0"><stop
         id="stop118"
         offset="0"
         style="stop-opacity:1;stop-color:#f4f023" /><stop
         id="stop120"
         offset="1"
         style="stop-opacity:1;stop-color:#f4731f" /><stop
         id="stop122"
         offset="1"
         style="stop-opacity:1;stop-color:#f4731f" /></linearGradient><linearGradient
       id="linearGradient138"
       spreadMethod="pad"
       gradientTransform="matrix(5.5610995,86.594269,21.052734,-1.5888855,290.23828,358.45801)"
       gradientUnits="userSpaceOnUse"
       y2="0"
       x2="1"
       y1="0"
       x1="0"><stop
         id="stop140"
         offset="0"
         style="stop-opacity:1;stop-color:#fff200" /><stop
         id="stop142"
         offset="1"
         style="stop-opacity:1;stop-color:#f47216" /><stop
         id="stop144"
         offset="1"
         style="stop-opacity:1;stop-color:#f47216" /></linearGradient><linearGradient
       id="linearGradient160"
       spreadMethod="pad"
       gradientTransform="matrix(2.3833251,-62.363674,-73.088646,-2.3833251,293.39062,429.65088)"
       gradientUnits="userSpaceOnUse"
       y2="0"
       x2="1"
       y1="0"
       x1="0"><stop
         id="stop162"
         offset="0"
         style="stop-opacity:1;stop-color:#fff200" /><stop
         id="stop164"
         offset="0.43922"
         style="stop-opacity:1;stop-color:#fff200" /><stop
         id="stop166"
         offset="1"
         style="stop-opacity:1;stop-color:#f47216" /><stop
         id="stop168"
         offset="1"
         style="stop-opacity:1;stop-color:#f47216" /></linearGradient><linearGradient
       id="linearGradient184"
       spreadMethod="pad"
       gradientTransform="matrix(14.299992,80.636063,84.608284,-15.094436,341.76123,347.94092)"
       gradientUnits="userSpaceOnUse"
       y2="0"
       x2="1"
       y1="0"
       x1="0"><stop
         id="stop186"
         offset="0"
         style="stop-opacity:1;stop-color:#fff200" /><stop
         id="stop188"
         offset="1"
         style="stop-opacity:1;stop-color:#f47216" /><stop
         id="stop190"
         offset="1"
         style="stop-opacity:1;stop-color:#f47216" /></linearGradient><linearGradient
       id="linearGradient206"
       spreadMethod="pad"
       gradientTransform="matrix(-5.1639032,-74.280762,-78.650215,5.5611262,348.66406,431.43262)"
       gradientUnits="userSpaceOnUse"
       y2="0"
       x2="1"
       y1="0"
       x1="0"><stop
         id="stop208"
         offset="0"
         style="stop-opacity:1;stop-color:#fff200" /><stop
         id="stop210"
         offset="0.43922"
         style="stop-opacity:1;stop-color:#fff200" /><stop
         id="stop212"
         offset="1"
         style="stop-opacity:1;stop-color:#f47216" /><stop
         id="stop214"
         offset="1"
         style="stop-opacity:1;stop-color:#f47216" /></linearGradient><linearGradient
       id="linearGradient230"
       spreadMethod="pad"
       gradientTransform="matrix(0,103.27798,123.93359,0,433.15918,226.72363)"
       gradientUnits="userSpaceOnUse"
       y2="0"
       x2="1"
       y1="0"
       x1="0"><stop
         id="stop232"
         offset="0"
         style="stop-opacity:1;stop-color:#ffffff" /><stop
         id="stop234"
         offset="1"
         style="stop-opacity:1;stop-color:#127bca" /><stop
         id="stop236"
         offset="1"
         style="stop-opacity:1;stop-color:#127bca" /></linearGradient><linearGradient
       id="linearGradient252"
       spreadMethod="pad"
       gradientTransform="matrix(-2.3833475,-96.128357,-116.78403,3.1777968,435.27295,327.1748)"
       gradientUnits="userSpaceOnUse"
       y2="0"
       x2="1"
       y1="0"
       x1="0"><stop
         id="stop254"
         offset="0"
         style="stop-opacity:1;stop-color:#ffffff" /><stop
         id="stop256"
         offset="1"
         style="stop-opacity:1;stop-color:#127bca" /><stop
         id="stop258"
         offset="1"
         style="stop-opacity:1;stop-color:#127bca" /></linearGradient><linearGradient
       id="linearGradient274"
       spreadMethod="pad"
       gradientTransform="matrix(-19.861254,75.472763,101.29239,26.614079,381.80371,237.22607)"
       gradientUnits="userSpaceOnUse"
       y2="0"
       x2="1"
       y1="0"
       x1="0"><stop
         id="stop276"
         offset="0"
         style="stop-opacity:1;stop-color:#ffffff" /><stop
         id="stop278"
         offset="1"
         style="stop-opacity:1;stop-color:#127bca" /><stop
         id="stop280"
         offset="1"
         style="stop-opacity:1;stop-color:#127bca" /></linearGradient><linearGradient
       id="linearGradient296"
       spreadMethod="pad"
       gradientTransform="matrix(23.039144,-66.336845,-90.567665,-31.380903,358.28857,309.0415)"
       gradientUnits="userSpaceOnUse"
       y2="0"
       x2="1"
       y1="0"
       x1="0"><stop
         id="stop298"
         offset="0"
         style="stop-opacity:1;stop-color:#ffffff" /><stop
         id="stop300"
         offset="1"
         style="stop-opacity:1;stop-color:#127bca" /><stop
         id="stop302"
         offset="1"
         style="stop-opacity:1;stop-color:#127bca" /></linearGradient><clipPath
       id="clipPath310"
       clipPathUnits="userSpaceOnUse"><path
         id="path312"
         d="M 0,792 612,792 612,0 0,0 0,792 Z" /></clipPath><linearGradient
       id="linearGradient330"
       spreadMethod="pad"
       gradientTransform="matrix(15.491696,84.608498,92.95018,-16.683365,291.43213,227.38721)"
       gradientUnits="userSpaceOnUse"
       y2="0"
       x2="1"
       y1="0"
       x1="0"><stop
         id="stop332"
         offset="0"
         style="stop-opacity:1;stop-color:#ffffff" /><stop
         id="stop334"
         offset="1"
         style="stop-opacity:1;stop-color:#127bca" /><stop
         id="stop336"
         offset="1"
         style="stop-opacity:1;stop-color:#127bca" /></linearGradient><linearGradient
       id="linearGradient352"
       spreadMethod="pad"
       gradientTransform="matrix(-3.1778049,-65.939453,-86.992416,4.369482,301.86426,301.12207)"
       gradientUnits="userSpaceOnUse"
       y2="0"
       x2="1"
       y1="0"
       x1="0"><stop
         id="stop354"
         offset="0"
         style="stop-opacity:1;stop-color:#ffffff" /><stop
         id="stop356"
         offset="1"
         style="stop-opacity:1;stop-color:#127bca" /><stop
         id="stop358"
         offset="1"
         style="stop-opacity:1;stop-color:#127bca" /></linearGradient><linearGradient
       id="linearGradient374"
       spreadMethod="pad"
       gradientTransform="matrix(0,103.29463,123.95356,0,383.5498,226.71826)"
       gradientUnits="userSpaceOnUse"
       y2="0"
       x2="1"
       y1="0"
       x1="0"><stop
         id="stop376"
         offset="0"
         style="stop-opacity:1;stop-color:#ffffff" /><stop
         id="stop378"
         offset="1"
         style="stop-opacity:1;stop-color:#127bca" /><stop
         id="stop380"
         offset="1"
         style="stop-opacity:1;stop-color:#127bca" /></linearGradient><linearGradient
       id="linearGradient396"
       spreadMethod="pad"
       gradientTransform="matrix(-10.327814,85.005852,95.730888,11.916708,237.82178,230.87793)"
       gradientUnits="userSpaceOnUse"
       y2="0"
       x2="1"
       y1="0"
       x1="0"><stop
         id="stop398"
         offset="0"
         style="stop-opacity:1;stop-color:#ffffff" /><stop
         id="stop400"
         offset="1"
         style="stop-opacity:1;stop-color:#127bca" /><stop
         id="stop402"
         offset="1"
         style="stop-opacity:1;stop-color:#127bca" /></linearGradient><linearGradient
       id="linearGradient418"
       spreadMethod="pad"
       gradientTransform="matrix(16.286095,-68.322144,-86.594353,-20.655533,228.96338,308.87256)"
       gradientUnits="userSpaceOnUse"
       y2="0"
       x2="1"
       y1="0"
       x1="0"><stop
         id="stop420"
         offset="0"
         style="stop-opacity:1;stop-color:#ffffff" /><stop
         id="stop422"
         offset="1"
         style="stop-opacity:1;stop-color:#127bca" /><stop
         id="stop424"
         offset="1"
         style="stop-opacity:1;stop-color:#127bca" /></linearGradient><linearGradient
       id="linearGradient440"
       spreadMethod="pad"
       gradientTransform="matrix(-7.9444957,106.05902,147.37039,10.725069,162.57422,356.3374)"
       gradientUnits="userSpaceOnUse"
       y2="0"
       x2="1"
       y1="0"
       x1="0"><stop
         id="stop442"
         offset="0"
         style="stop-opacity:1;stop-color:#fff200" /><stop
         id="stop444"
         offset="1"
         style="stop-opacity:1;stop-color:#f47216" /><stop
         id="stop446"
         offset="1"
         style="stop-opacity:1;stop-color:#f47216" /></linearGradient><linearGradient
       id="linearGradient462"
       spreadMethod="pad"
       gradientTransform="matrix(15.491731,-113.2088,-138.63113,-19.066746,150.4917,461.16553)"
       gradientUnits="userSpaceOnUse"
       y2="0"
       x2="1"
       y1="0"
       x1="0"><stop
         id="stop464"
         offset="0"
         style="stop-opacity:1;stop-color:#fff200" /><stop
         id="stop466"
         offset="0.43922"
         style="stop-opacity:1;stop-color:#fff200" /><stop
         id="stop468"
         offset="1"
         style="stop-opacity:1;stop-color:#f47216" /><stop
         id="stop470"
         offset="1"
         style="stop-opacity:1;stop-color:#f47216" /></linearGradient><linearGradient
       id="linearGradient486"
       spreadMethod="pad"
       gradientTransform="matrix(-7.9443388,106.05693,147.36749,10.724857,169.42187,356.83691)"
       gradientUnits="userSpaceOnUse"
       y2="0"
       x2="1"
       y1="0"
       x1="0"><stop
         id="stop488"
         offset="0"
         style="stop-opacity:1;stop-color:#fff200" /><stop
         id="stop490"
         offset="1"
         style="stop-opacity:1;stop-color:#f47216" /><stop
         id="stop492"
         offset="1"
         style="stop-opacity:1;stop-color:#f47216" /></linearGradient><clipPath
       id="clipPath500"
       clipPathUnits="userSpaceOnUse"><path
         id="path502"
         d="M 0,792 612,792 612,0 0,0 0,792 Z" /></clipPath><linearGradient
       id="linearGradient520"
       spreadMethod="pad"
       gradientTransform="matrix(15.491541,84.607651,92.949249,-16.683199,225.1499,343.99951)"
       gradientUnits="userSpaceOnUse"
       y2="0"
       x2="1"
       y1="0"
       x1="0"><stop
         id="stop522"
         offset="0"
         style="stop-opacity:1;stop-color:#fff200" /><stop
         id="stop524"
         offset="1"
         style="stop-opacity:1;stop-color:#f47216" /><stop
         id="stop526"
         offset="1"
         style="stop-opacity:1;stop-color:#f47216" /></linearGradient><linearGradient
       id="linearGradient542"
       spreadMethod="pad"
       gradientTransform="matrix(-5.1638999,-107.25022,-86.991852,4.3694539,236.79395,443.3623)"
       gradientUnits="userSpaceOnUse"
       y2="0"
       x2="1"
       y1="0"
       x1="0"><stop
         id="stop544"
         offset="0"
         style="stop-opacity:1;stop-color:#fff200" /><stop
         id="stop546"
         offset="0.43922"
         style="stop-opacity:1;stop-color:#fff200" /><stop
         id="stop548"
         offset="1"
         style="stop-opacity:1;stop-color:#f47216" /><stop
         id="stop550"
         offset="1"
         style="stop-opacity:1;stop-color:#f47216" /></linearGradient><linearGradient
       id="linearGradient566"
       spreadMethod="pad"
       gradientTransform="matrix(39.327808,-147.37996,-136.65419,-36.547054,172.69043,404.94922)"
       gradientUnits="userSpaceOnUse"
       y2="0"
       x2="1"
       y1="0"
       x1="0"><stop
         id="stop568"
         offset="0"
         style="stop-opacity:1;stop-color:#f4f023" /><stop
         id="stop570"
         offset="1"
         style="stop-opacity:1;stop-color:#f4731f" /><stop
         id="stop572"
         offset="1"
         style="stop-opacity:1;stop-color:#f4731f" /></linearGradient><linearGradient
       id="linearGradient588"
       spreadMethod="pad"
       gradientTransform="matrix(15.493094,-113.21877,-138.64333,-19.068422,204.17334,468.55859)"
       gradientUnits="userSpaceOnUse"
       y2="0"
       x2="1"
       y1="0"
       x1="0"><stop
         id="stop590"
         offset="0"
         style="stop-opacity:1;stop-color:#fff200" /><stop
         id="stop592"
         offset="0.43922"
         style="stop-opacity:1;stop-color:#fff200" /><stop
         id="stop594"
         offset="1"
         style="stop-opacity:1;stop-color:#f47216" /><stop
         id="stop596"
         offset="1"
         style="stop-opacity:1;stop-color:#f47216" /></linearGradient><linearGradient
       id="linearGradient612"
       spreadMethod="pad"
       gradientTransform="matrix(-7.9441752,106.05474,147.36446,10.724637,221.49756,360.625)"
       gradientUnits="userSpaceOnUse"
       y2="0"
       x2="1"
       y1="0"
       x1="0"><stop
         id="stop614"
         offset="0"
         style="stop-opacity:1;stop-color:#fff200" /><stop
         id="stop616"
         offset="1"
         style="stop-opacity:1;stop-color:#f47216" /><stop
         id="stop618"
         offset="1"
         style="stop-opacity:1;stop-color:#f47216" /></linearGradient><linearGradient
       id="linearGradient634"
       spreadMethod="pad"
       gradientTransform="matrix(5.5612693,86.596909,21.053375,-1.5889341,290.17578,358.45996)"
       gradientUnits="userSpaceOnUse"
       y2="0"
       x2="1"
       y1="0"
       x1="0"><stop
         id="stop636"
         offset="0"
         style="stop-opacity:1;stop-color:#fff200" /><stop
         id="stop638"
         offset="1"
         style="stop-opacity:1;stop-color:#f47216" /><stop
         id="stop640"
         offset="1"
         style="stop-opacity:1;stop-color:#f47216" /></linearGradient><linearGradient
       id="linearGradient656"
       spreadMethod="pad"
       gradientTransform="matrix(2.3832791,-62.362473,-73.087235,-2.3832791,296.87939,429.76514)"
       gradientUnits="userSpaceOnUse"
       y2="0"
       x2="1"
       y1="0"
       x1="0"><stop
         id="stop658"
         offset="0"
         style="stop-opacity:1;stop-color:#fff200" /><stop
         id="stop660"
         offset="0.43922"
         style="stop-opacity:1;stop-color:#fff200" /><stop
         id="stop662"
         offset="1"
         style="stop-opacity:1;stop-color:#f47216" /><stop
         id="stop664"
         offset="1"
         style="stop-opacity:1;stop-color:#f47216" /></linearGradient><linearGradient
       id="linearGradient680"
       spreadMethod="pad"
       gradientTransform="matrix(0,-27.011467,-10.327915,0,42.807373,24.01709)"
       gradientUnits="userSpaceOnUse"
       y2="0"
       x2="1"
       y1="0"
       x1="0"><stop
         id="stop682"
         offset="0"
         style="stop-opacity:1;stop-color:#fff200" /><stop
         id="stop684"
         offset="1"
         style="stop-opacity:1;stop-color:#f47216" /><stop
         id="stop686"
         offset="1"
         style="stop-opacity:1;stop-color:#f47216" /></linearGradient><clipPath
       id="clipPath694"
       clipPathUnits="userSpaceOnUse"><path
         id="path696"
         d="M 0,792 612,792 612,0 0,0 0,792 Z" /></clipPath><linearGradient
       id="linearGradient714"
       spreadMethod="pad"
       gradientTransform="matrix(0,-27.011082,-10.327766,0,42.800781,24.016602)"
       gradientUnits="userSpaceOnUse"
       y2="0"
       x2="1"
       y1="0"
       x1="0"><stop
         id="stop716"
         offset="0"
         style="stop-opacity:1;stop-color:#fff200" /><stop
         id="stop718"
         offset="1"
         style="stop-opacity:1;stop-color:#f47216" /><stop
         id="stop720"
         offset="1"
         style="stop-opacity:1;stop-color:#f47216" /></linearGradient><linearGradient
       id="linearGradient736"
       spreadMethod="pad"
       gradientTransform="matrix(0,-27.011253,-10.327833,0,42.809326,24.016602)"
       gradientUnits="userSpaceOnUse"
       y2="0"
       x2="1"
       y1="0"
       x1="0"><stop
         id="stop738"
         offset="0"
         style="stop-opacity:1;stop-color:#fff200" /><stop
         id="stop740"
         offset="1"
         style="stop-opacity:1;stop-color:#f47216" /><stop
         id="stop742"
         offset="1"
         style="stop-opacity:1;stop-color:#f47216" /></linearGradient><linearGradient
       id="linearGradient758"
       spreadMethod="pad"
       gradientTransform="matrix(0,-27.010982,-10.327729,0,42.795898,24.016602)"
       gradientUnits="userSpaceOnUse"
       y2="0"
       x2="1"
       y1="0"
       x1="0"><stop
         id="stop760"
         offset="0"
         style="stop-opacity:1;stop-color:#fff200" /><stop
         id="stop762"
         offset="1"
         style="stop-opacity:1;stop-color:#f47216" /><stop
         id="stop764"
         offset="1"
         style="stop-opacity:1;stop-color:#f47216" /></linearGradient><clipPath
       id="clipPath772"
       clipPathUnits="userSpaceOnUse"><path
         id="path774"
         d="M 0,792 612,792 612,0 0,0 0,792 Z" /></clipPath><linearGradient
       id="linearGradient792"
       spreadMethod="pad"
       gradientTransform="matrix(0,-27.01157,-10.327953,0,42.797852,24.01709)"
       gradientUnits="userSpaceOnUse"
       y2="0"
       x2="1"
       y1="0"
       x1="0"><stop
         id="stop794"
         offset="0"
         style="stop-opacity:1;stop-color:#fff200" /><stop
         id="stop796"
         offset="1"
         style="stop-opacity:1;stop-color:#f47216" /><stop
         id="stop798"
         offset="1"
         style="stop-opacity:1;stop-color:#f47216" /></linearGradient><linearGradient
       id="linearGradient814"
       spreadMethod="pad"
       gradientTransform="matrix(0,-27.011784,-10.328035,0,42.762451,24.01709)"
       gradientUnits="userSpaceOnUse"
       y2="0"
       x2="1"
       y1="0"
       x1="0"><stop
         id="stop816"
         offset="0"
         style="stop-opacity:1;stop-color:#fff200" /><stop
         id="stop818"
         offset="1"
         style="stop-opacity:1;stop-color:#f47216" /><stop
         id="stop820"
         offset="1"
         style="stop-opacity:1;stop-color:#f47216" /></linearGradient><linearGradient
       id="linearGradient836"
       spreadMethod="pad"
       gradientTransform="matrix(-27.408686,113.60702,130.68779,31.380959,183.15918,217.28516)"
       gradientUnits="userSpaceOnUse"
       y2="0"
       x2="1"
       y1="0"
       x1="0"><stop
         id="stop838"
         offset="0"
         style="stop-opacity:1;stop-color:#ffffff" /><stop
         id="stop840"
         offset="1"
         style="stop-opacity:1;stop-color:#127bca" /><stop
         id="stop842"
         offset="1"
         style="stop-opacity:1;stop-color:#127bca" /></linearGradient><linearGradient
       id="linearGradient858"
       spreadMethod="pad"
       gradientTransform="matrix(26.21693,-97.320419,-122.34567,-32.969776,157.56934,323.08252)"
       gradientUnits="userSpaceOnUse"
       y2="0"
       x2="1"
       y1="0"
       x1="0"><stop
         id="stop860"
         offset="0"
         style="stop-opacity:1;stop-color:#ffffff" /><stop
         id="stop862"
         offset="1"
         style="stop-opacity:1;stop-color:#127bca" /><stop
         id="stop864"
         offset="1"
         style="stop-opacity:1;stop-color:#127bca" /></linearGradient><clipPath
       id="clipPath872"
       clipPathUnits="userSpaceOnUse"><path
         id="path874"
         d="M 0,792 612,792 612,0 0,0 0,792 Z" /></clipPath><linearGradient
       id="linearGradient892"
       spreadMethod="pad"
       gradientTransform="matrix(0,-27.010843,-10.327676,0,42.762451,24.016602)"
       gradientUnits="userSpaceOnUse"
       y2="0"
       x2="1"
       y1="0"
       x1="0"><stop
         id="stop894"
         offset="0"
         style="stop-opacity:1;stop-color:#fff200" /><stop
         id="stop896"
         offset="1"
         style="stop-opacity:1;stop-color:#f47216" /><stop
         id="stop898"
         offset="1"
         style="stop-opacity:1;stop-color:#f47216" /></linearGradient></defs><g
     transform="matrix(1.3333333,0,0,-1.3333333,0,1056)"
     id="g10"><g
       id="g12"><g
         clip-path="url(#clipPath16)"
         id="g14"><g
           transform="translate(204.1392,176.9858)"
           id="g20"><path
             id="path22"
             style="fill:#231f20;fill-opacity:1;fill-rule:nonzero;stroke:none"
             d="m 0,0 c -4.606,0.243 -6.789,2.424 -6.061,6.789 1.212,1.939 3.152,3.151 5.819,3.637 C 3.637,10.668 6.304,9.213 7.516,5.819 7.516,1.697 5.092,-0.242 0,0 M 6.789,145.226 -29.578,129.467 4.364,39.52 -42.67,34.67 l -7.274,85.826 -36.852,-15.759 -11.879,37.579 0,0.243 58.914,16.486 0.242,0 0,0.243 36.125,9.94 10.183,-24.002 z M 125.587,5.819 c 0,-4.122 -2.667,-6.061 -7.758,-5.819 -4.607,0.243 -6.788,2.424 -6.062,6.789 1.212,1.939 3.396,3.151 6.062,3.637 3.636,0.242 6.303,-1.213 7.758,-4.607 m -85.341,4.849 c 0,-0.242 0.485,-0.728 0.97,-0.97 0.242,-0.485 0.242,-0.485 0.485,-0.727 0.242,-0.486 0.242,-0.486 0.242,-0.97 C 34.427,-0.242 25.7,-2.182 15.274,2.667 14.79,2.91 13.819,3.637 12.85,4.607 l 0,0.242 C 12.122,5.577 11.638,7.032 10.668,9.213 8.97,19.881 13.577,28.609 24.002,35.397 l 4.122,1.455 0.485,0.243 1.939,0.484 4.849,0 c 0,-0.727 0,-1.454 -0.484,-2.182 l 0,-0.242 -1.455,-5.334 C 21.82,25.699 17.699,20.366 21.093,12.85 26.427,5.334 31.518,5.819 36.125,14.79 l 4.121,-4.122 z m 31.518,4.607 C 72.249,10.668 70.552,6.304 67.643,2.424 64.248,-1.212 59.884,-2.425 54.55,-0.727 48.004,2.424 43.64,8.001 41.943,15.518 l -0.485,5.333 c -0.242,4.606 0.97,8.728 4.122,12.85 l 1.455,1.454 c 0.485,0.242 0.727,0.728 1.212,0.728 l 0.242,0.484 1.455,0.485 2.425,0.727 3.636,0 0.728,0 2.424,-0.97 1.697,-0.726 c 7.031,-4.849 10.667,-11.638 10.91,-20.608 m 29.579,28.608 0.242,0.242 0.243,0 L 110.555,6.304 99.888,4.122 98.433,17.457 93.827,2.424 83.402,13.577 81.462,2.424 l -8.485,0 4.848,35.883 12.365,-21.336 11.153,26.912 z m 79.037,-3.637 3.394,0.485 1.212,-0.242 0.486,-0.243 0.241,-1.212 0.243,-1.212 c 0.243,-0.485 0.243,-0.727 0.243,-1.213 l 0.242,-0.726 0,-0.486 0.484,-1.455 0,-1.212 -1.453,-0.484 -0.486,-0.485 -0.969,-0.243 -0.728,-0.242 -0.242,-0.242 -0.242,0 -1.941,-0.728 -0.241,-0.242 -4.607,-2.667 -0.97,-0.485 -0.243,-0.243 -0.727,-0.484 c -0.243,-0.486 -0.485,-0.486 -0.726,-0.728 l -0.486,-0.727 2.91,-22.79 c -0.485,-0.243 -0.971,-0.243 -1.455,-0.485 l -2.424,-0.484 -0.728,-0.486 -0.242,0 c -0.486,0 -0.971,0 -1.212,-0.242 L 169.228,0 l -1.698,-0.242 0,-0.242 -1.454,-0.243 -0.243,3.151 -0.242,0.971 -1.939,11.395 0,0.485 -0.243,1.696 -0.242,0.243 -0.486,3.637 -0.242,0.728 -1.212,7.03 0,0.243 -0.243,1.454 -0.242,0.728 -0.486,3.151 1.698,0.485 c 0.485,0.243 0.727,0.485 1.455,0.727 l 0.243,0 0.241,0.243 1.212,0.485 c 0.486,0.242 0.971,0.484 1.698,0.484 l 0.486,0.243 1.453,0.97 1.94,0.485 0.485,0.243 0.728,-5.82 0.242,-0.484 c 1.454,3.637 4.364,6.061 8.243,8 m -51.642,0.728 11.881,2.424 0,-4.364 0.242,-0.727 0,-6.546 0,-0.727 0,-2.425 c 0.243,-0.728 0.485,-1.697 0.243,-2.91 l 0.242,-0.242 c 1.939,4.364 5.576,6.546 10.91,6.304 5.576,-1.455 8.971,-5.334 9.941,-11.637 0.97,-6.79 -1.213,-11.88 -6.789,-15.759 -5.334,-2.425 -9.94,-0.97 -13.576,4.12 l 0.241,-6.061 -1.697,-0.241 c -0.728,-0.486 -1.454,-0.486 -2.181,-0.486 l -0.243,0 -0.97,0 C 136.74,1.94 136.74,2.424 136.74,3.152 l -0.243,0.727 c 0,0.243 -0.243,0.728 -0.243,0.97 l -0.726,3.636 c 0,0.243 0,0.728 -0.243,0.728 l -0.485,2.668 0,0.484 c -0.242,0 -0.242,0.485 -0.242,0.485 l 0,0.727 -0.243,0.97 -0.242,0.728 -0.727,3.636 -0.243,0.97 0,1.212 c -0.243,0.486 -0.243,0.969 -0.243,0.969 -0.242,0.243 -0.242,0.486 -0.242,0.729 l -0.484,1.939 0,0.969 c -0.243,0.728 -0.486,1.455 -0.486,2.182 l -0.242,0.728 c -0.243,0.243 -0.243,0.484 -0.243,0.727 l 0,0.485 c -0.242,0.485 -0.242,0.727 -0.242,0.97 l 0,0.727 c -0.242,0.728 -0.485,1.455 -0.485,1.94 -0.243,0.484 -0.243,0.727 -0.485,1.212 l -0.242,2.425 -0.243,0 c 0,0.484 0,0.969 -0.242,1.212 l -0.486,2.667 z M 93.584,282.45 c 3.395,-0.485 6.546,-1.454 8.971,-2.666 1.212,-0.728 1.939,-1.213 2.909,-2.183 3.152,-2.425 4.364,-5.091 3.879,-8 -0.242,-2.911 -2.425,-4.85 -6.061,-6.305 -1.939,-0.484 -3.879,-0.969 -6.061,-1.454 -2.182,0 -4.364,0 -6.788,0.485 -4.85,0.727 -8.971,2.424 -12.123,5.091 -0.243,0.243 -0.485,0.485 -0.969,0.97 -1.455,1.455 -2.425,2.91 -2.668,4.363 -0.242,0.972 -0.485,1.698 -0.242,2.425 0.485,2.91 2.667,4.849 6.304,6.547 3.636,1.455 8,1.697 12.849,0.727 m -152.983,24.487 31.033,2.424 27.396,-74.915 4.365,22.547 25.698,-1.213 7.516,-64.489 8.001,65.702 2.425,0 0.242,0 26.184,2.667 -19.396,-94.311 -24.002,3.636 -12.122,41.943 0,0.485 -1.94,-23.032 5.819,-15.759 -7.273,0 -0.485,-3.151 -9.94,2.908 -24.972,-0.242 -6.304,39.276 -1.212,5.335 -19.153,-6.547 -1.698,-39.761 -36.609,-3.152 26.427,139.649 z m 287.54,-169.47 c -4.849,-5.334 4.849,-15.032 29.094,-29.093 24.244,-13.82 29.094,-30.063 15.032,-48.732 -10.183,-13.335 -29.094,-19.639 -56.248,-19.88 -0.97,0.484 -2.182,0.484 -3.151,0.484 -1.698,0 -3.394,0 -5.092,-0.243 -8,0.243 -16.729,1.213 -25.941,2.667 -0.971,0.728 -2.183,1.213 -3.395,1.698 l -0.484,10.91 -27.397,-5.818 c -1.454,0.484 -2.909,0.969 -4.121,1.454 l -11.88,65.46 -13.093,-62.308 c -1.212,-0.969 -1.696,-2.424 -1.696,-4.122 0,-0.484 0.242,-0.969 0.242,-1.455 L 96.494,52.369 84.371,94.796 80.492,52.854 58.915,58.915 C 57.702,59.399 56.49,59.642 55.278,60.127 51.641,57.46 47.52,55.521 42.671,54.066 21.335,48.489 7.516,56.975 0.243,79.766 l -16.002,51.155 32.003,9.698 9.94,-48.974 c 1.212,-5.091 2.668,-8.485 4.849,-10.183 2.182,-1.939 4.607,-2.424 7.274,-1.696 5.818,1.696 8.001,7.273 6.061,16.728 l -8.486,48.732 25.457,3.637 4.364,-28.61 4.122,19.881 25.456,-0.969 7.759,-64.491 8.001,65.46 2.424,0.485 0.727,0 25.456,2.424 -1.453,-8.97 44.61,19.396 7.516,-24.973 -33.701,-10.182 3.152,-10.426 27.153,10.669 4.366,-22.791 -26.186,-6.788 3.153,-11.879 8.728,3.151 0,2.91 c 1.454,-0.243 3.394,-0.728 4.849,-1.455 l 21.82,7.758 2.909,-13.819 c 19.153,-3.637 31.275,-3.394 36.609,0.727 7.759,5.819 -1.212,15.274 -26.426,28.608 -25.456,13.335 -30.548,28.852 -15.275,46.792 15.275,17.941 39.52,15.517 72.734,-7.03 l -18.184,-16.002 c -13.575,11.153 -22.789,14.304 -27.881,8.728 m -13.092,174.319 30.792,-3.88 22.062,-144.012 -41.944,8.001 1.456,39.518 0,5.576 -20.123,-2.182 -9.457,-39.034 -17.697,2.183 0,-3.152 -24.245,0.242 4.363,47.277 -12.849,-31.275 -10.425,1.939 -4.607,30.549 -10.182,-44.126 -21.336,4.608 -0.241,-4.85 -18.184,-0.728 -6.304,76.128 25.941,4.365 -1.212,-64.976 20.124,66.915 18.667,-3.394 7.274,-35.155 14.547,35.882 17.456,0 0.486,-33.457 35.638,87.038 z m 44.369,5.091 -0.243,0 -50.671,6.061 -24.244,-56.731 -31.277,-2.911 -36.608,4.607 c 0.969,11.395 -5.334,18.183 -18.669,20.608 -26.427,2.667 -35.397,-5.091 -26.912,-23.274 l -32.487,-2.91 -36.61,4.363 -22.79,55.521 -49.944,-5.819 -29.578,-154.195 11.88,-1.697 -27.396,-6.547 -0.728,0 22.548,-72.734 35.639,20.367 1.455,-87.039 53.823,7.758 c -0.485,-1.454 -0.728,-2.667 -0.97,-3.637 -4.364,-0.726 -7.515,-2.909 -9.698,-6.303 -2.182,-2.909 -3.151,-6.061 -3.151,-9.455 0,-9.698 5.575,-14.547 16.728,-14.547 3.394,0 6.304,0.727 8.486,2.182 4.121,-3.151 9.213,-4.607 15.759,-4.607 6.303,0 11.88,1.456 16.002,4.364 4.121,-2.908 8.727,-4.364 14.303,-4.364 6.062,0 11.638,1.939 15.76,5.819 4.848,0.243 15.273,1.455 31.032,2.667 2.667,-5.334 8.728,-8 18.184,-8 5.819,0 10.183,1.453 12.85,4.606 1.455,-0.242 2.909,-0.242 4.849,-0.242 9.455,0 17.214,1.454 23.516,4.606 1.698,-3.152 4.608,-4.606 8.729,-4.606 12.365,0 18.669,3.394 18.669,9.94 -1.213,6.545 -1.941,12.122 -2.425,16.243 3.151,1.455 7.273,3.395 11.88,5.577 22.547,-3.637 44.367,-1.697 65.218,5.576 23.517,10.91 34.911,29.093 34.67,55.278 l 0,1.212 c -1.212,14.789 -10.426,26.427 -27.64,34.912 l 28.852,24.488 -15.274,14.061 -23.517,158.802 z" /></g></g></g><g
       id="g24"><g
         clip-path="url(#clipPath28)"
         id="g26"><g
           id="g32"><g
             id="g34"><path
               id="path44"
               style="fill:url(#linearGradient36);stroke:none"
               d="m 383.549,401.734 -3.151,-7.759 -15.032,-36.608 15.517,-1.941 3.394,-0.484 17.697,-2.183 9.457,39.034 20.123,2.182 0.726,-5.576 -0.726,0 -1.456,-39.519 41.945,-8.001 -22.063,144.013 -30.791,3.879 -35.64,-87.037 z m -13.334,-41.702 51.156,125.103 25.456,-3.152 21.094,-136.982 -34.428,6.546 1.212,35.155 0.243,0 c 0.486,0.727 0.486,1.454 0.486,2.183 l 0,0 -0.486,5.333 c -0.243,0.728 -0.243,1.211 -0.485,1.697 l 0,0 c -0.485,0.485 -0.97,0.97 -1.454,0.97 l 0,0 c -0.729,0.485 -0.97,0.727 -1.698,0.485 l 0,0 -20.123,-2.183 c -0.728,0 -1.455,-0.241 -1.94,-0.969 l 0,0 c -0.484,-0.243 -0.969,-0.97 -1.212,-1.697 l 0,0 -8.485,-36.125 -29.336,3.636 z" /></g></g></g></g><g
       id="g46"><g
         clip-path="url(#clipPath50)"
         id="g48"><g
           id="g54"><g
             id="g56"><path
               id="path68"
               style="fill:url(#linearGradient58);stroke:none"
               d="m 370.215,360.032 29.336,-3.636 8.485,36.125 c 0.243,0.727 0.728,1.454 1.212,1.697 l 0,0 c 0.485,0.728 1.212,0.969 1.94,0.969 l 0,0 20.123,2.183 c 0.728,0.242 0.969,0 1.698,-0.485 l 0,0 c 0.484,0 0.969,-0.485 1.454,-0.97 l 0,0 c 0.242,-0.486 0.242,-0.969 0.485,-1.697 l 0,0 0.486,-5.333 c 0,-0.729 0,-1.456 -0.486,-2.183 l 0,0 -0.243,0 -1.212,-35.155 34.428,-6.546 -21.094,136.982 -25.456,3.152 -51.156,-125.103 z m 45.095,49.945 c -0.728,0.242 -1.213,0.727 -1.455,1.212 l 0,0 c -0.242,0.728 -0.728,1.212 -0.728,1.94 l 0,0 c 0,0.242 0,0.484 0.243,0.727 l 0,0 11.153,43.397 c 0,0.728 0.484,1.212 0.727,1.698 l 0,0 c 0.728,0.485 1.212,0.728 1.939,0.97 l 0,0 c 0.486,0 1.214,0 1.698,-0.485 l 0,0 5.576,-1.94 c 0.242,-0.485 0.971,-0.726 1.213,-1.212 l 0,0 c 0.241,-0.727 0.484,-1.212 0.484,-1.94 l 0,0 0.486,-38.791 c 0,-0.97 -0.486,-1.697 -0.729,-2.182 l 0,0 c -0.727,-0.727 -1.212,-1.212 -2.182,-1.212 l 0,0 -16.485,-2.425 c -0.728,0 -1.455,0 -1.94,0.243" /></g></g></g></g><g
       id="g70"><g
         clip-path="url(#clipPath74)"
         id="g72"><g
           id="g78"><g
             id="g80"><path
               id="path90"
               style="fill:url(#linearGradient82);stroke:none"
               d="m 425.25,458.951 c -0.243,-0.486 -0.727,-0.97 -0.727,-1.698 l 0,0 -11.153,-43.397 c -0.243,-0.243 -0.243,-0.485 -0.243,-0.727 l 0,0 c 0,-0.728 0.486,-1.212 0.728,-1.94 l 0,0 c 0.242,-0.485 0.727,-0.97 1.455,-1.212 l 0,0 c 0.485,-0.243 1.212,-0.243 1.94,-0.243 l 0,0 16.485,2.425 c 0.97,0 1.455,0.485 2.182,1.212 l 0,0 c 0.243,0.485 0.729,1.212 0.729,2.182 l 0,0 -0.486,38.791 c 0,0.728 -0.243,1.213 -0.484,1.94 l 0,0 c -0.242,0.486 -0.971,0.727 -1.213,1.212 l 0,0 -5.576,1.94 c -0.484,0.485 -1.212,0.485 -1.698,0.485 l 0,0 c -0.727,-0.242 -1.211,-0.485 -1.939,-0.97 m 2.425,-2.424 5.334,-2.183 0.243,-38.791 -16.73,-2.424 11.153,43.398 z" /></g></g></g></g><g
       id="g92"><g
         clip-path="url(#clipPath96)"
         id="g94"><g
           transform="translate(416.5215,413.1289)"
           id="g100"><path
             id="path102"
             style="fill:#231f20;fill-opacity:1;fill-rule:nonzero;stroke:none"
             d="M 0,0 16.73,2.425 16.487,41.216 11.153,43.398 0,0 Z" /></g></g></g><g
       id="g104"><g
         id="g106"><g
           id="g112"><g
             id="g114"><path
               id="path124"
               style="fill:url(#linearGradient116);stroke:none"
               d="m 431.554,388.399 0.726,0 -0.726,5.576 0,-5.576 z" /></g></g></g></g><g
       id="g126"><g
         id="g128"><g
           id="g134"><g
             id="g136"><path
               id="path146"
               style="fill:url(#linearGradient138);stroke:none"
               d="m 280.267,431.555 6.305,-76.129 18.183,0.728 0.241,4.849 -2.665,0.485 2.665,9.454 1.213,64.977 -25.942,-4.364 z m 3.637,-2.667 18.91,3.152 -1.454,-72.734 -11.637,-0.486 -5.819,70.068 z" /></g></g></g></g><g
       id="g148"><g
         id="g150"><g
           id="g156"><g
             id="g158"><path
               id="path170"
               style="fill:url(#linearGradient160);stroke:none"
               d="m 283.904,428.888 5.819,-70.068 11.637,0.486 1.454,72.734 -18.91,-3.152 z" /></g></g></g></g><g
       id="g172"><g
         id="g174"><g
           id="g180"><g
             id="g182"><path
               id="path192"
               style="fill:url(#linearGradient184);stroke:none"
               d="m 304.996,370.942 -2.665,-9.454 2.665,-0.485 21.337,-4.607 10.181,44.126 4.608,-30.549 10.424,-1.94 12.85,31.276 -4.364,-47.277 24.245,-0.243 0,3.153 -3.394,0.484 0,-0.243 -17.214,0.243 3.879,43.397 0,0.486 c 0,0.727 -0.243,1.698 -0.728,2.182 l 0,0 c -0.241,0.728 -0.969,0.969 -1.696,1.212 l 0,0 c -0.728,0.243 -1.455,0 -2.182,-0.243 l 0,0 c -0.971,-0.483 -1.212,-0.969 -1.698,-1.453 l 0,0 0,-0.242 0,-0.243 -11.879,-28.609 -5.335,0.97 -3.88,28.124 c -0.241,0.727 -0.483,1.453 -1.211,1.939 l 0,0 c -0.484,0.726 -1.212,0.969 -1.939,1.213 l 0,0 c -0.97,0 -1.698,-0.487 -2.182,-0.728 l 0,0 c -0.728,-0.485 -1.212,-1.212 -1.455,-2.182 l 0,0 -9.698,-41.217 -17.214,3.879 20.851,70.067 13.82,-2.423 6.787,-32.732 c 0,-0.726 0.486,-1.453 0.971,-1.938 l 0,0 c 0.485,-0.485 0.969,-0.727 1.939,-0.727 l 0,0 c 0.727,-0.243 1.454,0 1.94,0.242 l 0,0 c 0.726,0.485 1.212,1.212 1.454,1.697 l 0,0 13.578,33.7 12.122,0 0.485,-37.822 3.151,7.759 -0.485,33.456 -17.456,0 -14.547,-35.881 -7.274,35.155 -18.667,3.394 -20.124,-66.916 z" /></g></g></g></g><g
       id="g194"><g
         id="g196"><g
           id="g202"><g
             id="g204"><path
               id="path216"
               style="fill:url(#linearGradient206);stroke:none"
               d="m 306.451,363.911 17.214,-3.879 9.698,41.217 c 0.243,0.97 0.727,1.697 1.455,2.182 l 0,0 c 0.484,0.241 1.212,0.728 2.182,0.728 l 0,0 c 0.727,-0.244 1.455,-0.487 1.939,-1.213 l 0,0 c 0.728,-0.486 0.97,-1.212 1.211,-1.939 l 0,0 3.88,-28.124 5.335,-0.97 11.879,28.609 0,0.243 0,0.242 c 0.486,0.484 0.727,0.97 1.698,1.453 l 0,0 c 0.727,0.243 1.454,0.486 2.182,0.243 l 0,0 c 0.727,-0.243 1.455,-0.484 1.696,-1.212 l 0,0 c 0.485,-0.484 0.728,-1.455 0.728,-2.182 l 0,0 0,-0.486 -3.879,-43.397 17.214,-0.243 0,0.243 -15.517,1.941 15.032,36.608 -0.485,37.822 -12.122,0 -13.578,-33.7 c -0.242,-0.485 -0.728,-1.212 -1.454,-1.697 l 0,0 c -0.486,-0.242 -1.213,-0.485 -1.94,-0.242 l 0,0 c -0.97,0 -1.454,0.242 -1.939,0.727 l 0,0 c -0.485,0.485 -0.971,1.212 -0.971,1.938 l 0,0 -6.787,32.732 -13.82,2.423 -20.851,-70.067 z" /></g></g></g></g><g
       id="g218"><g
         id="g220"><g
           id="g226"><g
             id="g228"><path
               id="path238"
               style="fill:url(#linearGradient230);stroke:none"
               d="m 405.611,328.757 c -15.273,-17.94 -10.182,-33.457 15.275,-46.792 l 0,0 c 25.214,-13.334 34.186,-22.789 26.427,-28.609 l 0,0 c -5.335,-4.121 -17.457,-4.363 -36.61,-0.727 l 0,0 0.728,-3.394 c 19.637,-3.879 32.245,-3.394 37.821,1.212 l 0,0 c 3.152,2.425 4.365,5.092 3.879,8.244 l 0,0 c 0,2.423 -1.454,5.575 -4.121,8.486 l 0,0 c -4.607,4.848 -13.576,10.909 -26.669,17.939 l 0,0 c -11.881,6.062 -18.911,12.608 -21.335,19.639 l 0,0 c -1.94,6.788 0.485,14.062 7.03,21.82 l 0,0 c 13.82,15.517 35.397,13.82 64.976,-5.334 l 0,0 -12.85,-11.151 c -14.547,11.394 -24.486,13.575 -30.306,6.787 l 0,0 c -4.121,-4.122 -2.909,-9.455 3.637,-16.001 l 0,0 c 5.091,-5.092 13.82,-11.153 26.428,-18.183 l 0,0 c 11.151,-6.546 17.94,-13.335 20.365,-20.852 l 0,0 c 1.938,-7.03 -0.243,-14.787 -6.547,-23.031 l 0,0 c -13.577,-17.213 -42.913,-22.548 -88.008,-15.759 l 0,0 -0.242,9.94 -3.394,-0.727 0.484,-10.91 c 1.213,-0.485 2.425,-0.97 3.395,-1.698 l 0,0 c 9.212,-1.455 17.941,-2.424 25.941,-2.667 l 0,0 c 1.698,0.243 3.395,0.243 5.092,0.243 l 0,0 c 0.969,0 2.182,0 3.151,-0.484 l 0,0 c 27.155,0.241 46.065,6.545 56.248,19.879 l 0,0 c 14.062,18.67 9.212,34.913 -15.032,48.732 l 0,0 c -24.245,14.062 -33.942,23.759 -29.094,29.094 l 0,0 c 5.092,5.576 14.306,2.424 27.882,-8.728 l 0,0 18.183,16.002 c -18.545,12.589 -34.295,18.904 -47.248,18.905 l 0,0 c -10.245,0 -18.74,-3.951 -25.486,-11.875" /></g></g></g></g><g
       id="g240"><g
         id="g242"><g
           id="g248"><g
             id="g250"><path
               id="path260"
               style="fill:url(#linearGradient252);stroke:none"
               d="m 408.036,326.575 c -6.545,-7.758 -8.97,-15.032 -7.03,-21.82 l 0,0 c 2.424,-7.031 9.454,-13.577 21.335,-19.639 l 0,0 c 13.093,-7.03 22.062,-13.091 26.669,-17.939 l 0,0 c 2.667,-2.911 4.121,-6.063 4.121,-8.486 l 0,0 c 0.486,-3.152 -0.727,-5.819 -3.879,-8.244 l 0,0 c -5.576,-4.606 -18.184,-5.091 -37.821,-1.212 l 0,0 2.182,-10.182 -28.124,-6.062 0.242,-9.94 c 45.095,-6.789 74.431,-1.454 88.008,15.759 l 0,0 c 6.304,8.244 8.485,16.001 6.547,23.031 l 0,0 c -2.425,7.517 -9.214,14.306 -20.365,20.852 l 0,0 c -12.608,7.03 -21.337,13.091 -26.428,18.183 l 0,0 c -6.546,6.546 -7.758,11.879 -3.637,16.001 l 0,0 c 5.82,6.788 15.759,4.607 30.306,-6.787 l 0,0 12.85,11.151 c -16.288,10.548 -30.153,15.801 -41.629,15.802 l 0,0 c -9.364,10e-4 -17.137,-3.496 -23.347,-10.468" /></g></g></g></g><g
       id="g262"><g
         id="g264"><g
           id="g270"><g
             id="g272"><path
               id="path282"
               style="fill:url(#linearGradient274);stroke:none"
               d="m 342.334,311.059 -3.879,-1.455 -2.668,-1.212 1.213,-6.061 1.697,-8.972 11.88,-65.459 c 1.212,-0.485 2.667,-0.97 4.121,-1.455 l 0,0 27.397,5.819 3.394,0.727 28.124,6.062 -2.182,10.182 -0.728,3.394 -2.909,13.82 -21.82,-7.758 -4.848,-1.456 -8.729,-3.151 -3.152,11.88 26.184,6.788 -4.365,22.791 -27.153,-10.669 -3.152,10.426 33.701,10.182 -7.516,24.973 -44.61,-19.396 z m -2.667,-4.365 45.096,19.155 5.575,-17.942 -30.549,-9.213 c -0.727,-0.242 -1.455,-0.97 -1.939,-1.698 l 0,0 c -0.485,-0.727 -0.728,-1.696 -0.242,-2.423 l 0,0 0,-0.242 4.122,-13.82 26.91,10.425 2.909,-15.76 -26.183,-6.788 5.333,-18.183 2.183,0.727 0,-0.241 c 0,0.241 0.485,0.241 0.728,0.241 l 0,0 31.76,11.153 4.363,-20.609 -56.248,-11.636 -13.818,76.854 z" /></g></g></g></g><g
       id="g284"><g
         id="g286"><g
           id="g292"><g
             id="g294"><path
               id="path304"
               style="fill:url(#linearGradient296);stroke:none"
               d="m 339.667,306.694 13.818,-76.854 56.248,11.636 -4.363,20.609 -31.76,-11.153 c -0.243,0 -0.728,0 -0.728,-0.241 l 0,0 0,0.241 -2.183,-0.727 -5.333,18.183 26.183,6.788 -2.909,15.76 -26.91,-10.425 -4.122,13.82 0,0.242 c -0.486,0.727 -0.243,1.696 0.242,2.423 l 0,0 c 0.484,0.728 1.212,1.456 1.939,1.698 l 0,0 30.549,9.213 -5.575,17.942 -45.096,-19.155 z m 32.244,-61.096 0.243,0 0,-0.242 -0.243,0.242 z" /></g></g></g></g><g
       id="g306"><g
         clip-path="url(#clipPath310)"
         id="g308"><g
           transform="translate(371.9116,245.5986)"
           id="g314"><path
             id="path316"
             style="fill:#66c430;fill-opacity:1;fill-rule:nonzero;stroke:none"
             d="M 0,0 0.243,-0.243 0.243,0 0,0 Z" /></g></g></g><g
       id="g318"><g
         id="g320"><g
           id="g326"><g
             id="g328"><path
               id="path338"
               style="fill:url(#linearGradient330);stroke:none"
               d="m 318.331,317.605 -0.727,0 -2.424,-0.485 -8.001,-65.46 -7.759,64.491 -25.456,0.969 -4.122,-19.881 -1.94,-9.455 -9.212,-47.277 -0.971,-2.91 c 0.486,-0.241 1.213,-0.484 1.698,-0.484 l 0,0 c 1.212,-0.486 2.424,-0.728 3.637,-1.212 l 0,0 21.577,-6.061 3.879,41.942 12.122,-42.428 23.518,-3.879 c 0,0.485 -0.243,0.97 -0.243,1.455 l 0,0 c 0,1.697 0.485,3.152 1.698,4.122 l 0,0 13.092,62.307 -1.697,8.972 -15.032,-72.977 -18.668,2.91 -11.639,40.488 c -0.241,0.728 -0.726,1.455 -1.211,1.698 l 0,0 c -0.727,0.726 -1.454,0.969 -2.425,0.726 l 0,0 c -0.727,0 -1.212,-0.483 -1.939,-0.969 l 0,0 c -0.484,-0.727 -0.97,-1.213 -1.212,-2.182 l 0,0 -3.152,-37.822 -17.456,4.85 c -0.727,0.242 -1.212,0.485 -1.697,0.485 l 0,0 c -0.242,0.243 -0.485,0.243 -0.728,0.484 l 0,0 10.425,52.125 0,0.243 4.607,21.337 19.637,-0.729 7.274,-61.823 c 0,-0.97 0.485,-1.456 1.212,-2.182 l 0,0 c 0.486,-0.486 1.213,-0.727 2.183,-0.727 l 0,0 c 0.727,0 1.454,0.241 2.182,0.727 l 0,0 c 0.484,0.726 0.97,1.212 0.97,2.182 l 0,0 7.759,63.036 21.577,1.94 -1.212,-6.547 3.879,1.455 1.453,8.97 -25.456,-2.424 z" /></g></g></g></g><g
       id="g340"><g
         id="g342"><g
           id="g348"><g
             id="g350"><path
               id="path360"
               style="fill:url(#linearGradient352);stroke:none"
               d="m 318.09,314.211 -7.759,-63.036 c 0,-0.97 -0.486,-1.456 -0.97,-2.182 l 0,0 c -0.728,-0.486 -1.455,-0.727 -2.182,-0.727 l 0,0 c -0.97,0 -1.697,0.241 -2.183,0.727 l 0,0 c -0.727,0.726 -1.212,1.212 -1.212,2.182 l 0,0 -7.274,61.823 -19.637,0.729 -4.607,-21.337 0,-0.243 -10.425,-52.125 c 0.243,-0.241 0.486,-0.241 0.728,-0.484 l 0,0 c 0.485,0 0.97,-0.243 1.697,-0.485 l 0,0 17.456,-4.85 3.152,37.822 c 0.242,0.969 0.728,1.455 1.212,2.182 l 0,0 c 0.727,0.486 1.212,0.969 1.939,0.969 l 0,0 c 0.971,0.243 1.698,0 2.425,-0.726 l 0,0 c 0.485,-0.243 0.97,-0.97 1.211,-1.698 l 0,0 11.639,-40.488 18.668,-2.91 15.032,72.977 -1.213,6.061 2.668,1.212 1.212,6.547 -21.577,-1.94 z" /></g></g></g></g><g
       id="g362"><g
         id="g364"><g
           id="g370"><g
             id="g372"><path
               id="path382"
               style="fill:url(#linearGradient374);stroke:none"
               d="m 381.126,257.235 4.848,1.456 c -1.454,0.727 -3.395,1.212 -4.848,1.455 l 0,0 0,-2.911 z" /></g></g></g></g><g
       id="g384"><g
         id="g386"><g
           id="g392"><g
             id="g394"><path
               id="path404"
               style="fill:url(#linearGradient396);stroke:none"
               d="m 240.022,322.212 8.485,-48.732 c 1.94,-9.455 -0.243,-15.032 -6.061,-16.729 l 0,0 c -2.667,-0.728 -5.092,-0.242 -7.273,1.697 l 0,0 c -2.182,1.698 -3.637,5.092 -4.849,10.183 l 0,0 -9.941,48.974 -32.002,-9.698 16.001,-51.156 c 7.274,-22.791 21.092,-31.276 42.428,-25.699 l 0,0 c 4.849,1.455 8.97,3.393 12.607,6.061 l 0,0 c -0.485,0 -1.212,0.243 -1.698,0.484 l 0,0 0.971,2.91 c -3.637,-2.668 -8.001,-4.606 -12.607,-6.062 l 0,0 c -19.396,-5.091 -32.004,2.668 -38.549,23.276 l 0,0 -14.79,48.004 24.972,7.515 9.456,-45.095 c 1.454,-6.06 3.152,-10.181 5.819,-12.122 l 0,0 c 2.909,-2.667 6.303,-3.636 10.183,-2.424 l 0,0 c 8,1.698 10.909,8.728 8.727,20.608 l 0,0 -8.243,45.095 19.153,2.668 5.091,-34.186 1.94,9.455 -4.364,28.61 -25.456,-3.637 z" /></g></g></g></g><g
       id="g406"><g
         id="g408"><g
           id="g414"><g
             id="g416"><path
               id="path426"
               style="fill:url(#linearGradient418);stroke:none"
               d="m 243.658,319.302 8.243,-45.095 c 2.182,-11.88 -0.727,-18.91 -8.727,-20.608 l 0,0 c -3.88,-1.212 -7.274,-0.243 -10.183,2.424 l 0,0 c -2.667,1.941 -4.365,6.062 -5.819,12.122 l 0,0 -9.456,45.095 -24.972,-7.515 14.79,-48.004 c 6.545,-20.608 19.153,-28.367 38.549,-23.276 l 0,0 c 4.606,1.456 8.97,3.394 12.607,6.062 l 0,0 9.212,47.277 -5.091,34.186 -19.153,-2.668 z" /></g></g></g></g><g
       id="g428"><g
         id="g430"><g
           id="g436"><g
             id="g438"><path
               id="path448"
               style="fill:url(#linearGradient440);stroke:none"
               d="m 144.74,483.923 -26.427,-139.65 36.609,3.153 1.698,39.761 19.153,6.547 1.455,-5.335 -0.243,0 6.304,-39.276 24.972,0.243 -11.395,3.393 -10.668,-0.242 -5.576,34.67 0,2.182 -1.455,5.091 c -0.243,0.727 -0.727,1.212 -0.97,1.698 l 0,0 c -0.484,0.242 -0.969,0.727 -1.454,0.727 l 0,0 -1.94,0 -19.395,-6.061 c -0.486,-0.486 -1.213,-0.727 -1.455,-1.213 l 0,0 c -0.485,-0.726 -0.727,-1.455 -0.727,-1.939 l 0,0 -1.455,-37.337 -29.579,-2.183 25.457,132.862 25.7,1.697 28.608,-77.826 0.728,4.607 0,0.242 0.485,1.697 -27.397,74.916 -31.033,-2.424 z" /></g></g></g></g><g
       id="g450"><g
         id="g452"><g
           id="g458"><g
             id="g460"><path
               id="path472"
               style="fill:url(#linearGradient462);stroke:none"
               d="m 147.649,481.014 -25.457,-132.862 29.579,2.183 1.455,37.337 c 0,0.484 0.242,1.213 0.727,1.939 l 0,0 c 0.242,0.486 0.969,0.727 1.455,1.213 l 0,0 19.395,6.061 1.94,0 c 0.485,0 0.97,-0.485 1.454,-0.727 l 0,0 c 0.243,-0.486 0.727,-0.971 0.97,-1.698 l 0,0 1.455,-5.091 0,-2.182 5.576,-34.67 10.668,0.242 c -1.697,0.486 -3.394,0.971 -5.333,1.455 l 0,0 10.424,50.671 -28.608,77.826 -25.7,-1.697 z m 8.971,-74.917 c -0.727,0 -1.212,0.485 -1.698,0.971 l 0,0 c -0.242,0.241 -0.727,0.97 -0.727,1.454 l 0,0 c -0.242,0.485 -0.242,0.728 0,0.97 l 0,0 1.94,44.852 c 0,0.485 0.243,1.213 0.485,1.455 l 0,0 c 0.485,0.728 1.212,1.212 1.697,1.212 l 0,0 c 0.727,0.485 1.212,0.485 1.94,0.485 l 0,0 5.575,-1.212 c 0.486,-0.242 1.212,-0.485 1.455,-0.97 l 0,0 c 0.728,-0.485 0.97,-0.97 1.213,-1.697 l 0,0 8.001,-37.822 c 0,-0.97 0,-1.696 -0.485,-2.424 l 0,0 c -0.243,-0.727 -0.97,-1.212 -1.698,-1.454 l 0,0 -15.759,-5.82 c -0.363,-0.12 -0.666,-0.181 -0.969,-0.181 l 0,0 c -0.304,0 -0.607,0.061 -0.97,0.181" /></g></g></g></g><g
       id="g474"><g
         id="g476"><g
           id="g482"><g
             id="g484"><path
               id="path494"
               style="fill:url(#linearGradient486);stroke:none"
               d="m 158.317,457.011 c -0.485,0 -1.212,-0.484 -1.697,-1.212 l 0,0 c -0.242,-0.242 -0.485,-0.97 -0.485,-1.455 l 0,0 -1.94,-44.852 c -0.242,-0.242 -0.242,-0.485 0,-0.97 l 0,0 c 0,-0.484 0.485,-1.213 0.727,-1.454 l 0,0 c 0.486,-0.486 0.971,-0.971 1.698,-0.971 l 0,0 c 0.727,-0.241 1.212,-0.241 1.939,0 l 0,0 15.759,5.82 c 0.728,0.242 1.455,0.727 1.698,1.454 l 0,0 c 0.485,0.728 0.485,1.454 0.485,2.424 l 0,0 -8.001,37.822 c -0.243,0.727 -0.485,1.212 -1.213,1.697 l 0,0 c -0.243,0.485 -0.969,0.728 -1.455,0.97 l 0,0 -5.575,1.212 c -0.728,0 -1.213,0 -1.94,-0.485 m 1.212,-2.909 5.577,-0.969 8,-38.065 -15.759,-5.818 2.182,44.852 z" /></g></g></g></g><g
       id="g496"><g
         clip-path="url(#clipPath500)"
         id="g498"><g
           transform="translate(165.1055,453.1328)"
           id="g504"><path
             id="path506"
             style="fill:#231f20;fill-opacity:1;fill-rule:nonzero;stroke:none"
             d="M 0,0 -5.576,0.969 -7.759,-43.883 8,-38.064 0,0 Z" /></g></g></g><g
       id="g508"><g
         id="g510"><g
           id="g516"><g
             id="g518"><path
               id="path528"
               style="fill:url(#linearGradient520);stroke:none"
               d="m 251.416,433.978 -0.242,0 -2.425,0 -8.001,-65.702 -7.516,64.49 -25.698,1.212 -4.364,-22.547 -0.485,-1.697 0,-0.242 -0.728,-4.607 -10.424,-50.671 c 1.939,-0.484 3.636,-0.969 5.333,-1.455 l 0,0 11.395,-3.393 9.94,-2.909 0.485,3.151 0.243,3.151 0.485,4.849 0.727,7.759 1.939,23.032 0,-0.486 12.122,-41.942 24.003,-3.636 19.395,94.311 -26.184,-2.668 z m -8.242,-68.126 c 0.484,0.484 0.969,1.212 0.969,1.939 l 0,0 7.516,63.036 21.82,1.939 -17.699,-86.795 -18.668,2.909 -11.638,40.731 c -0.242,0.727 -0.969,1.213 -1.454,1.698 l 0,0 c -0.727,0.484 -1.455,0.726 -2.182,0.726 l 0,0 c -0.97,-0.242 -1.455,-0.485 -2.182,-1.211 l 0,0 c -0.485,-0.486 -0.727,-1.213 -0.97,-1.939 l 0,0 -3.152,-38.065 -17.698,5.091 c -0.728,0.243 -1.455,0.485 -2.424,0.485 l 0,0 10.666,52.611 4.365,21.335 19.881,-0.727 7.272,-61.824 c 0,-0.727 0.243,-1.455 0.971,-1.939 l 0,0 c 0.485,-0.485 1.455,-0.97 2.181,-0.97 l 0,0 c 0.728,0 1.698,0.485 2.426,0.97" /></g></g></g></g><g
       id="g530"><g
         id="g532"><g
           id="g538"><g
             id="g540"><path
               id="path552"
               style="fill:url(#linearGradient542);stroke:none"
               d="m 251.659,430.827 -7.516,-63.036 c 0,-0.727 -0.485,-1.455 -0.969,-1.939 l 0,0 c -0.728,-0.485 -1.698,-0.97 -2.426,-0.97 l 0,0 c -0.726,0 -1.696,0.485 -2.181,0.97 l 0,0 c -0.728,0.484 -0.971,1.212 -0.971,1.939 l 0,0 -7.272,61.824 -19.881,0.727 -4.365,-21.335 -10.666,-52.611 c 0.969,0 1.696,-0.242 2.424,-0.485 l 0,0 17.698,-5.091 3.152,38.065 c 0.243,0.726 0.485,1.453 0.97,1.939 l 0,0 c 0.727,0.726 1.212,0.969 2.182,1.211 l 0,0 c 0.727,0 1.455,-0.242 2.182,-0.726 l 0,0 c 0.485,-0.485 1.212,-0.971 1.454,-1.698 l 0,0 11.638,-40.731 18.668,-2.909 17.699,86.795 -21.82,-1.939 z" /></g></g></g></g><g
       id="g554"><g
         id="g556"><g
           id="g562"><g
             id="g564"><path
               id="path574"
               style="fill:url(#linearGradient566);stroke:none"
               d="m 176.985,388.399 0.243,0 -1.455,5.335 1.212,-5.335 z" /></g></g></g></g><g
       id="g576"><g
         id="g578"><g
           id="g584"><g
             id="g586"><path
               id="path598"
               style="fill:url(#linearGradient588);stroke:none"
               d="m 218.929,352.759 2.181,0 -1.696,4.849 -0.485,-4.849 z" /></g></g></g></g><g
       id="g600"><g
         id="g602"><g
           id="g608"><g
             id="g610"><path
               id="path620"
               style="fill:url(#linearGradient612);stroke:none"
               d="m 219.414,357.608 1.696,-4.849 -2.181,0 -0.243,-3.151 7.273,0 -5.818,15.759 -0.727,-7.759 z" /></g></g></g></g><g
       id="g622"><g
         id="g624"><g
           id="g630"><g
             id="g632"><path
               id="path642"
               style="fill:url(#linearGradient634);stroke:none"
               d="m 284.874,458.708 c -3.637,-1.697 -5.819,-3.636 -6.304,-6.546 l 0,0 c -0.242,-0.727 0,-1.454 0.243,-2.425 l 0,0 c 0.242,-1.453 1.212,-2.909 2.667,-4.363 l 0,0 c 0.485,-0.485 0.727,-0.727 0.969,-0.969 l 0,0 c 3.153,-2.668 7.274,-4.365 12.123,-5.092 l 0,0 c 2.424,-0.486 4.606,-0.486 6.788,-0.486 l 0,0 c 2.182,0.486 4.122,0.971 6.061,1.455 l 0,0 c 3.637,1.455 5.819,3.395 6.061,6.304 l 0,0 c 0.486,2.91 -0.728,5.576 -3.878,8 l 0,0 c -0.971,0.971 -1.698,1.456 -2.91,2.184 l 0,0 c -2.425,1.211 -5.576,2.181 -8.971,2.666 l 0,0 c -1.94,0.388 -3.802,0.582 -5.571,0.582 l 0,0 c -2.653,0 -5.096,-0.437 -7.278,-1.31 m 10.183,-16.001 c -4.122,0.728 -7.759,2.182 -10.183,4.121 l 0,0 c -0.485,0.485 -0.728,0.485 -1.212,0.971 l 0,0 c -0.728,0.727 -1.455,1.938 -1.697,2.666 l 0,0 0,0.243 0,0.97 c 0.484,1.696 1.697,2.908 4.121,3.879 l 0,0 c 3.151,0.97 6.788,1.213 10.91,0.727 l 0,0 c 3.151,-0.485 5.576,-1.212 8,-2.667 l 0,0 c 0.972,-0.243 1.698,-0.969 2.425,-1.455 l 0,0 c 1.94,-1.697 2.91,-3.394 2.91,-4.849 l 0,0 c -0.486,-1.696 -1.94,-2.908 -4.122,-3.636 l 0,0 c -1.697,-0.728 -3.395,-1.213 -5.091,-1.213 l 0,0 c -0.568,-0.071 -1.157,-0.1 -1.754,-0.1 l 0,0 c -1.443,0 -2.935,0.171 -4.307,0.343" /></g></g></g></g><g
       id="g644"><g
         id="g646"><g
           id="g652"><g
             id="g654"><path
               id="path666"
               style="fill:url(#linearGradient656);stroke:none"
               d="m 286.086,455.557 c -2.424,-0.971 -3.637,-2.183 -4.121,-3.879 l 0,0 0,-0.97 0,-0.243 c 0.242,-0.728 0.969,-1.939 1.697,-2.666 l 0,0 c 0.484,-0.486 0.727,-0.486 1.212,-0.971 l 0,0 c 2.424,-1.939 6.061,-3.393 10.183,-4.121 l 0,0 c 1.939,-0.243 4.121,-0.485 6.061,-0.243 l 0,0 c 1.696,0 3.394,0.485 5.091,1.213 l 0,0 c 2.182,0.728 3.636,1.94 4.122,3.636 l 0,0 c 0,1.455 -0.97,3.152 -2.91,4.849 l 0,0 c -0.727,0.486 -1.453,1.212 -2.425,1.455 l 0,0 c -2.424,1.455 -4.849,2.182 -8,2.667 l 0,0 c -1.374,0.162 -2.695,0.243 -3.962,0.243 l 0,0 c -2.532,0 -4.848,-0.323 -6.948,-0.97" /></g></g></g></g><g
       id="g668"><g
         id="g670"><g
           id="g676"><g
             id="g678"><path
               id="path688"
               style="fill:url(#linearGradient680);stroke:none"
               d="m 332.878,217.96 0.485,-2.667 c 0.243,-0.243 0.243,-0.729 0.243,-1.213 l 0,0 0.242,0 0.242,-2.423 c 0.243,-0.486 0.243,-0.729 0.485,-1.214 l 0,0 c 0,-0.485 0.243,-1.211 0.485,-1.939 l 0,0 0,-0.727 c 0,-0.242 0,-0.485 0.242,-0.97 l 0,0 0,-0.486 c 0,-0.242 0,-0.483 0.243,-0.726 l 0,0 0.242,-0.728 c 0,-0.727 0.243,-1.454 0.486,-2.182 l 0,0 0,-0.969 0.484,-1.939 c 0,-0.243 0,-0.486 0.243,-0.729 l 0,0 c 0,0 0,-0.484 0.243,-0.969 l 0,0 0,-1.212 0.242,-0.97 0.727,-3.636 0.243,-0.728 0.242,-0.97 0,-0.727 c 0,0 0,-0.485 0.242,-0.485 l 0,0 0,-0.484 0.485,-2.668 c 0.243,0 0.243,-0.485 0.243,-0.728 l 0,0 0.726,-3.637 c 0,-0.241 0.244,-0.726 0.244,-0.969 l 0,0 0.242,-0.726 c 0,-0.729 0,-1.214 0.243,-1.456 l 0,0 0.969,0 0.243,0 c 0.727,0 1.453,0 2.182,0.485 l 0,0 1.696,0.242 -0.241,6.061 c 3.637,-5.09 8.242,-6.546 13.576,-4.12 l 0,0 c 5.577,3.879 7.758,8.969 6.789,15.758 l 0,0 c -0.97,6.304 -4.365,10.183 -9.94,11.638 l 0,0 c -5.335,0.242 -8.972,-1.94 -10.91,-6.305 l 0,0 -0.243,0.243 c 0.243,1.213 0,2.182 -0.243,2.91 l 0,0 0,2.425 0,0.727 0,6.546 -0.242,0.727 0,4.364 -11.88,-2.424 z m 18.911,-30.306 c -3.152,3.151 -3.394,6.545 -0.97,10.182 l 0,0 c 0.484,0.728 0.97,0.969 1.454,1.212 l 0,0 c 0.729,0 1.212,0 1.94,-0.243 l 0,0 c 1.697,-1.696 2.668,-3.878 2.425,-6.301 l 0,0 c -0.242,-2.184 -1.212,-4.122 -3.153,-5.093 l 0,0 c -0.142,-0.071 -0.304,-0.1 -0.475,-0.1 l 0,0 c -0.414,0 -0.878,0.172 -1.221,0.343" /></g></g></g></g><g
       id="g690"><g
         clip-path="url(#clipPath694)"
         id="g692"><g
           transform="translate(350.8193,197.8364)"
           id="g698"><path
             id="path700"
             style="fill:#231f20;fill-opacity:1;fill-rule:nonzero;stroke:none"
             d="m 0,0 c -2.424,-3.637 -2.183,-7.031 0.97,-10.182 0.484,-0.243 1.212,-0.485 1.696,-0.243 1.94,0.97 2.91,2.909 3.153,5.092 C 6.062,-2.909 5.091,-0.727 3.394,0.969 2.666,1.212 2.182,1.212 1.454,1.212 0.97,0.969 0.484,0.728 0,0" /></g></g></g><g
       id="g702"><g
         id="g704"><g
           id="g710"><g
             id="g712"><path
               id="path722"
               style="fill:url(#linearGradient714);stroke:none"
               d="m 384.52,217.232 c -3.88,-1.939 -6.79,-4.363 -8.244,-8 l 0,0 -0.242,0.484 -0.729,5.82 -0.484,-0.243 -1.939,-0.486 -1.455,-0.969 -0.485,-0.243 c -0.727,0 -1.212,-0.243 -1.697,-0.484 l 0,0 -1.212,-0.485 -0.242,-0.243 -0.243,0 c -0.728,-0.242 -0.969,-0.484 -1.455,-0.726 l 0,0 -1.697,-0.486 0.485,-3.151 0.243,-0.728 0.242,-1.454 0,-0.243 1.213,-7.031 0.241,-0.728 0.485,-3.637 0.243,-0.242 0.243,-1.696 0,-0.485 1.939,-11.395 0.243,-0.971 0.242,-3.151 1.453,0.243 0,0.242 1.699,0.242 0.485,0.243 c 0.241,0.242 0.726,0.242 1.212,0.242 l 0,0 0.241,0 0.729,0.485 2.424,0.484 c 0.484,0.243 0.969,0.243 1.455,0.485 l 0,0 -2.909,22.791 0.485,0.726 c 0.241,0.243 0.484,0.243 0.726,0.729 l 0,0 0.727,0.484 0.243,0.243 0.97,0.485 4.608,2.666 0.241,0.243 1.94,0.728 0.242,0 0.242,0.242 0.728,0.242 0.97,0.243 0.485,0.485 1.453,0.484 0,1.212 -0.484,1.455 0,0.486 -0.242,0.726 c 0,0.485 0,0.728 -0.243,1.212 l 0,0 -0.243,1.213 -0.241,1.212 -0.485,0.242 -1.213,0.243 -3.393,-0.485 z" /></g></g></g></g><g
       id="g724"><g
         id="g726"><g
           id="g732"><g
             id="g734"><path
               id="path744"
               style="fill:url(#linearGradient736);stroke:none"
               d="m 305.725,221.111 -0.243,-0.242 -11.153,-26.912 -12.364,21.336 -4.85,-35.883 8.487,0 1.939,11.153 10.425,-11.153 4.606,15.032 1.455,-13.334 10.667,2.181 -8.726,37.822 -0.243,0 z" /></g></g></g></g><g
       id="g746"><g
         id="g748"><g
           id="g754"><g
             id="g756"><path
               id="path766"
               style="fill:url(#linearGradient758);stroke:none"
               d="m 260.144,214.564 -3.636,0 -2.425,-0.726 -1.455,-0.486 -0.242,-0.483 c -0.485,0 -0.727,-0.486 -1.212,-0.728 l 0,0 -1.455,-1.455 c -3.151,-4.122 -4.364,-8.244 -4.122,-12.85 l 0,0 0.486,-5.332 c 1.696,-7.517 6.06,-13.094 12.607,-16.245 l 0,0 c 5.333,-1.698 9.697,-0.485 13.092,3.151 l 0,0 c 2.91,3.879 4.606,8.244 4.121,12.851 l 0,0 c -0.242,8.969 -3.879,15.759 -10.91,20.608 l 0,0 -1.696,0.726 -2.425,0.969 -0.728,0 z m 1.697,-30.546 c -3.636,1.938 -5.333,4.606 -6.061,7.758 l 0,0 c -0.727,3.393 -0.242,6.06 1.455,8.485 l 0,0 c 0.727,0.728 1.455,0.969 2.182,1.212 l 0,0 c 0.727,0 1.696,-0.243 2.424,-0.484 l 0,0 c 2.909,-2.425 4.607,-5.334 5.092,-8.485 l 0,0 c 0.485,-3.396 -0.242,-6.062 -2.183,-8.244 l 0,0 c -0.567,-0.284 -1.218,-0.402 -1.806,-0.402 l 0,0 c -0.416,0 -0.801,0.059 -1.103,0.16" /></g></g></g></g><g
       id="g768"><g
         clip-path="url(#clipPath772)"
         id="g770"><g
           transform="translate(257.2354,200.2607)"
           id="g776"><path
             id="path778"
             style="fill:#231f20;fill-opacity:1;fill-rule:nonzero;stroke:none"
             d="m 0,0 c -1.698,-2.424 -2.183,-5.092 -1.455,-8.485 0.727,-3.152 2.424,-5.819 6.061,-7.758 0.727,-0.243 1.94,-0.243 2.909,0.242 1.94,2.182 2.668,4.848 2.183,8.244 C 9.212,-4.606 7.515,-1.696 4.606,0.728 3.878,0.97 2.909,1.212 2.182,1.212 1.454,0.97 0.727,0.728 0,0" /></g></g></g><g
       id="g780"><g
         id="g782"><g
           id="g788"><g
             id="g790"><path
               id="path800"
               style="fill:url(#linearGradient792);stroke:none"
               d="m 234.688,214.564 -1.94,-0.484 -0.485,-0.242 -4.121,-1.455 c -10.426,-6.788 -15.033,-15.516 -13.335,-26.184 l 0,0 c 0.97,-2.181 1.454,-3.637 2.182,-4.365 l 0,0 0,-0.241 c 0.969,-0.97 1.94,-1.697 2.425,-1.94 l 0,0 c 10.425,-4.85 19.153,-2.909 26.669,5.334 l 0,0 c 0,0.484 0,0.484 -0.244,0.969 l 0,0 c -0.242,0.243 -0.242,0.243 -0.484,0.727 l 0,0 c -0.485,0.243 -0.97,0.728 -0.97,0.971 l 0,0 -4.121,4.122 c -4.607,-8.971 -9.698,-9.456 -15.032,-1.94 l 0,0 c -3.394,7.516 0.727,12.849 12.364,16.971 l 0,0 1.456,5.334 0,0.242 c 0.485,0.728 0.485,1.455 0.485,2.181 l 0,0 -4.849,0 z" /></g></g></g></g><g
       id="g802"><g
         id="g804"><g
           id="g810"><g
             id="g812"><path
               id="path822"
               style="fill:url(#linearGradient814);stroke:none"
               d="m 321.968,187.411 c -2.666,-0.485 -4.849,-1.697 -6.062,-3.636 l 0,0 c -0.726,-4.365 1.456,-6.546 6.062,-6.789 l 0,0 c 5.091,-0.242 7.759,1.697 7.759,5.819 l 0,0 c -1.352,3.152 -3.749,4.632 -6.997,4.632 l 0,0 c -0.25,0 -0.503,-0.008 -0.762,-0.026" /></g></g></g></g><g
       id="g824"><g
         id="g826"><g
           id="g832"><g
             id="g834"><path
               id="path844"
               style="fill:url(#linearGradient836);stroke:none"
               d="m 164.62,336.273 0,-0.242 -0.242,0 -58.914,-16.486 0,-0.243 11.879,-37.579 36.852,15.759 7.274,-85.825 47.034,4.849 -33.942,89.947 36.367,15.759 -10.183,24.002 -36.125,-9.941 z m -54.792,-18.911 55.035,15.274 c 0.243,0 0.728,0.243 1.212,0.486 l 0,0 32.73,9.213 7.758,-18.184 -33.214,-14.547 c -0.97,-0.243 -1.455,-0.969 -1.94,-1.697 l 0,0 c -0.485,-0.97 -0.485,-1.939 0,-2.667 l 0,0 32.488,-85.826 -39.277,-4.121 -7.273,82.674 c 0,0.727 -0.242,1.454 -0.727,1.939 l 0,0 c -0.485,0.727 -1.212,0.97 -1.698,0.97 l 0,0 c -0.727,0.242 -1.454,0.242 -1.938,0 l 0,0 -33.459,-14.547 -9.697,31.033 z" /></g></g></g></g><g
       id="g846"><g
         id="g848"><g
           id="g854"><g
             id="g856"><path
               id="path866"
               style="fill:url(#linearGradient858);stroke:none"
               d="m 166.075,333.122 c -0.484,-0.243 -0.969,-0.486 -1.212,-0.486 l 0,0 -55.035,-15.274 9.697,-31.033 33.459,14.547 c 0.484,0.242 1.211,0.242 1.938,0 l 0,0 c 0.486,0 1.213,-0.243 1.698,-0.97 l 0,0 c 0.485,-0.485 0.727,-1.212 0.727,-1.939 l 0,0 7.273,-82.674 39.277,4.121 -32.488,85.826 c -0.485,0.728 -0.485,1.697 0,2.667 l 0,0 c 0.485,0.728 0.97,1.454 1.94,1.697 l 0,0 33.214,14.547 -7.758,18.184 -32.73,-9.213 z" /></g></g></g></g><g
       id="g868"><g
         clip-path="url(#clipPath872)"
         id="g870"><g
           transform="translate(105.4639,319.5449)"
           id="g876"><path
             id="path878"
             style="fill:#00accf;fill-opacity:1;fill-rule:nonzero;stroke:none"
             d="M 0,0 0,-0.243 0,0 Z" /></g></g></g><g
       id="g880"><g
         id="g882"><g
           id="g888"><g
             id="g890"><path
               id="path900"
               style="fill:url(#linearGradient892);stroke:none"
               d="m 203.897,187.411 c -2.667,-0.485 -4.607,-1.697 -5.819,-3.636 l 0,0 c -0.728,-4.365 1.455,-6.546 6.061,-6.789 l 0,0 c 5.092,-0.242 7.517,1.697 7.517,5.819 l 0,0 c -1.127,3.152 -3.508,4.632 -6.949,4.632 l 0,0 c -0.264,0 -0.534,-0.008 -0.81,-0.026" /></g></g></g></g></g></svg>